:SAMPLES-PER-SECOND 30
:FRAME-RANGE 1-3535
:FULLY-SPECIFIED
:DEGREES
2320
root  12.0175 38.3839 29.2191 -151.862 20.052 -172.316
RightUpLeg  -24.957 8.24754 2.99338
RightLeg  26.9787 1.47902 0.59281
RightFoot  -17.5901 0.270098 7.12749
RightToes  5.38503e-012 1.26228e-014 -6.01869e-014
Spine  22.5589 1.87399 -7.17038
Spine1  8.72372 2.64727 -7.42894
HEad  4.49504 3.10374 -2.35006
LeftShoulder1  -0.396145 4.46321 -28.2511
LeftArm  15.9319 21.322 -42.8936
LeftForeArm  6.18276 -16.441 -8.55351
LeftHand  -0.176498 3.27643 9.09045
RightShoulder  1.63401 1.95611 24.967
RightArm  39.6567 -40.4261 56.5918
RightForeArm  38.355 25.3458 3.42082
RightHand  -0.0719145 -3.20065 -2.98988
LeftUpLeg  -57.429 -4.84523 11.4182
LeftLeg  61.3217 5.9312 12.1985
LeftFoot  -11.5328 0.0737516 2.65498
LeftToes  8.9788e-011 3.29689e-010 2.1201e-011
2321
root  13.0523 39.0775 28.2822 -150.299 19.4738 -174.029
RightUpLeg  -23.6826 6.95437 2.66345
RightLeg  22.8059 1.96143 0.690014
RightFoot  -13.2464 0.024249 6.86264
RightToes  5.38503e-012 1.26228e-014 -6.01869e-014
Spine  23.3597 1.9503 -8.91036
Spine1  9.23043 2.15682 -6.68348
HEad  2.8114 3.10102 -2.88977
LeftShoulder1  -0.315534 4.21248 -28.8236
LeftArm  15.6478 19.3923 -41.6764
LeftForeArm  6.60108 -15.6026 -9.13031
LeftHand  -0.159003 3.43003 8.71253
RightShoulder  1.641 2.0157 24.7411
RightArm  42.0345 -41.688 57.2344
RightForeArm  36.5126 26.4043 3.73411
RightHand  -0.0301471 -4.07908 -0.747327
LeftUpLeg  -58.4851 -4.80916 11.4548
LeftLeg  52.533 10.2113 14.4127
LeftFoot  -12.3682 0.0976053 2.59833
LeftToes  8.9788e-011 3.29689e-010 2.1201e-011
2322
root  14.0369 39.4091 27.1778 -149.124 18.6156 -175.386
RightUpLeg  -21.9354 6.72703 2.29031
RightLeg  19.739 2.52016 0.793037
RightFoot  -10.6158 -0.113142 6.46548
RightToes  5.38503e-012 1.26228e-014 -6.01869e-014
Spine  23.5164 2.1445 -8.4601
Spine1  10.1399 2.34392 -6.53775
HEad  1.86387 1.59698 -2.7848
LeftShoulder1  -0.0661323 3.49461 -28.7488
LeftArm  18.6759 16.7324 -41.341
LeftForeArm  10.7235 -15.4648 -9.31669
LeftHand  -0.11366 4.07172 8.72358
RightShoulder  1.6353 1.90771 25.2946
RightArm  42.9862 -43.0381 56.6645
RightForeArm  35.8518 27.6156 4.02709
RightHand  -0.0279413 -4.42135 -0.50277
LeftUpLeg  -58.8078 -4.32946 10.9193
LeftLeg  42.7959 8.45676 8.69446
LeftFoot  -10.9005 0.0672675 -0.475776
LeftToes  8.9788e-011 3.29689e-010 2.1201e-011
2323
root  15.0163 39.3129 26.0363 -148.425 18.1736 -176.74
RightUpLeg  -20.4535 7.10536 1.76862
RightLeg  18.9559 2.81634 0.868315
RightFoot  -10.667 -0.106035 5.69793
RightToes  5.38503e-012 1.26228e-014 -6.01869e-014
Spine  23.1069 2.22602 -8.25785
Spine1  10.7845 2.70894 -6.88689
HEad  2.51873 0.165901 -2.03566
LeftShoulder1  -0.10431 3.60968 -28.1874
LeftArm  23.364 15.4657 -41.895
LeftForeArm  10.0996 -17.0803 -8.35355
LeftHand  -0.126936 4.05475 9.85385
RightShoulder  1.60676 1.80736 25.3513
RightArm  45.5216 -42.9042 56.5472
RightForeArm  34.5476 27.2567 4.0165
RightHand  -0.0278886 -4.18705 -0.523477
LeftUpLeg  -59.0979 -2.87973 8.61369
LeftLeg  35.2324 2.88727 2.55923
LeftFoot  -10.8173 0.0834727 -4.07532
LeftToes  8.9788e-011 3.29689e-010 2.1201e-011
2324
root  15.9795 38.8495 24.831 -147.525 17.5983 -177.884
RightUpLeg  -19.8838 8.60004 1.62445
RightLeg  20.3146 1.27718 0.31283
RightFoot  -12.7333 -0.0232727 5.19523
RightToes  5.38503e-012 1.26228e-014 -6.01869e-014
Spine  22.3033 2.10344 -8.36526
Spine1  10.8043 2.66112 -6.78953
HEad  2.67258 -0.514166 -1.88017
LeftShoulder1  -0.150486 3.75567 -27.3689
LeftArm  27.0403 15.9361 -42.7009
LeftForeArm  6.40173 -19.4727 -6.68748
LeftHand  -0.133712 3.93798 9.62586
RightShoulder  1.57002 1.72669 25.1098
RightArm  46.6073 -41.8703 55.6438
RightForeArm  34.5099 26.8036 3.92097
RightHand  -0.0243888 -4.20063 0.0772605
LeftUpLeg  -60.3469 -1.53794 5.61148
LeftLeg  31.223 -1.16903 -0.408565
LeftFoot  -13.6802 -0.0643171 -7.15476
LeftToes  8.9788e-011 3.29689e-010 2.1201e-011
2325
root  16.9043 38.1225 23.5662 -147.412 16.8569 -178.632
RightUpLeg  -19.2865 9.25241 2.56317
RightLeg  24.2456 -0.341365 -0.386109
RightFoot  -15.7357 0.0810116 4.89009
RightToes  5.38503e-012 1.26228e-014 -6.01869e-014
Spine  22.3616 2.09659 -8.33373
Spine1  10.6467 2.50053 -6.13387
HEad  1.60408 -1.01518 -1.78946
LeftShoulder1  0.0342559 3.19668 -26.068
LeftArm  26.6073 16.4264 -44.4607
LeftForeArm  6.03641 -20.2432 -6.09149
LeftHand  -0.149896 3.71072 9.49869
RightShoulder  1.53669 1.71308 24.4978
RightArm  44.7612 -40.0569 54.7326
RightForeArm  34.8812 25.625 3.65223
RightHand  -0.0204041 -4.25302 0.31395
LeftUpLeg  -60.9411 -1.60006 3.24595
LeftLeg  29.6376 -0.00620424 0.349411
LeftFoot  -14.2828 -0.107528 -7.50892
LeftToes  8.9788e-011 3.29689e-010 2.1201e-011
2326
root  17.7919 37.3714 22.2799 -148.045 17.1943 -179.02
RightUpLeg  -19.3221 10.4123 3.49213
RightLeg  31.1348 -1.30704 -1.08772
RightFoot  -17.2288 0.239471 6.92342
RightToes  5.38503e-012 1.26228e-014 -6.01869e-014
Spine  23.7833 2.32375 -8.973
Spine1  9.80605 2.63518 -5.99768
HEad  0.274589 -1.13376 -1.52641
LeftShoulder1  0.232249 2.56113 -25.302
LeftArm  26.059 16.0566 -45.4213
LeftForeArm  5.76357 -20.6826 -5.77942
LeftHand  -0.166948 3.45851 9.33838
RightShoulder  1.55769 1.79765 24.4
RightArm  42.9536 -36.7491 52.783
RightForeArm  34.7472 24.5638 3.43825
RightHand  -0.0213098 -4.00679 0.0504102
LeftUpLeg  -60.1185 -2.49929 2.14954
LeftLeg  29.5987 -0.669634 -0.0539881
LeftFoot  -8.48817 0.172436 -4.87969
LeftToes  8.9788e-011 3.29689e-010 2.1201e-011
2327
root  18.643 36.413 20.9221 -148.686 17.871 -178.473
RightUpLeg  -22.5492 9.24511 4.37798
RightLeg  44.2363 1.85644 1.63567
RightFoot  -15.5683 0.235143 9.22143
RightToes  5.38503e-012 1.26228e-014 -6.01869e-014
Spine  26.1038 2.45673 -9.16736
Spine1  8.18569 2.23462 -5.86622
HEad  -1.34382 -0.3107 -1.89586
LeftShoulder1  0.543684 1.56579 -25.323
LeftArm  25.8682 14.1742 -45.004
LeftForeArm  3.90675 -20.9207 -5.70339
LeftHand  -0.166421 3.29724 8.59806
RightShoulder  1.59067 1.99379 23.8707
RightArm  36.6241 -30.7178 52.6584
RightForeArm  38.1353 21.7512 4.37647
RightHand  -0.0237157 -3.46506 -0.30177
LeftUpLeg  -62.1454 -4.47903 4.9167
LeftLeg  39.1899 1.61241 1.80077
LeftFoot  -9.15373 0.0592532 -0.223265
LeftToes  8.9788e-011 3.29689e-010 2.1201e-011
2328
root  19.5662 35.9487 19.4703 -151.057 19.8117 -179.482
RightUpLeg  -26.5158 8.40379 2.51309
RightLeg  58.2149 3.85039 6.23935
RightFoot  -7.5253 -0.497654 13.3389
RightToes  5.38503e-012 1.26228e-014 -6.01869e-014
Spine  29.2752 3.18118 -11.5417
Spine1  7.53748 2.02962 -5.62738
HEad  -2.67565 0.218891 -2.39927
LeftShoulder1  1.11573 -0.272479 -25.2567
LeftArm  25.4212 8.99831 -44.1254
LeftForeArm  3.95809 -18.9231 -7.13806
LeftHand  -0.167738 3.0611 7.81618
RightShoulder  1.79625 2.64662 24.0651
RightArm  28.255 -24.5879 52.3494
RightForeArm  42.3793 21.329 4.49029
RightHand  -0.0342011 -4.85324 -2.04947
LeftUpLeg  -59.6831 -4.02936 3.87407
LeftLeg  45.0377 2.10696 2.688
LeftFoot  -14.1524 0.0623026 -0.920437
LeftToes  8.9788e-011 3.29689e-010 2.1201e-011
2329
root  20.4894 35.4949 18.1195 -150.938 20.9026 -179.334
RightUpLeg  -33.9598 6.37747 1.98769
RightLeg  71.054 2.69462 7.93012
RightFoot  -1.24635 -1.42383 15.9286
RightToes  5.38503e-012 1.26228e-014 -6.01869e-014
Spine  29.5569 2.59502 -11.6851
Spine1  7.07169 1.93991 -6.68085
HEad  -1.28723 0.0495183 -3.79461
LeftShoulder1  1.28124 -0.77259 -25.5047
LeftArm  22.4772 1.12012 -43.233
LeftForeArm  11.8478 -15.0939 -9.83747
LeftHand  -0.148118 3.31599 7.60722
RightShoulder  1.73701 2.48559 23.8652
RightArm  23.5677 -18.0831 53.0997
RightForeArm  44.4141 20.9876 4.63719
RightHand  -0.00236078 -5.91194 -5.417
LeftUpLeg  -58.9593 -1.91275 3.43757
LeftLeg  49.7448 1.33077 2.16464
LeftFoot  -18.989 0.0119382 -1.52512
LeftToes  8.9788e-011 3.29689e-010 2.1201e-011
2330
root  21.4611 35.3282 16.6579 -150.735 21.3236 179.75
RightUpLeg  -41.4307 3.3847 0.42364
RightLeg  80.1852 1.43498 8.40339
RightFoot  -6.7709 -0.577318 13.2522
RightToes  5.38503e-012 1.26228e-014 -6.01869e-014
Spine  29.8667 2.06264 -12.157
Spine1  5.89741 1.25181 -6.47414
HEad  -1.19982 -0.693686 -3.22407
LeftShoulder1  1.50021 -1.69013 -24.0575
LeftArm  11.8742 -6.40679 -44.4907
LeftForeArm  26.7132 -9.30889 -12.1685
LeftHand  -0.0817394 4.44865 8.00731
RightShoulder  1.73494 2.68623 22.7682
RightArm  18.978 -14.3911 54.6846
RightForeArm  44.2531 22.1804 3.61469
RightHand  -0.00559764 -5.69394 -7.0513
LeftUpLeg  -57.0871 -1.29465 2.7805
LeftLeg  51.5469 0.843089 1.64184
LeftFoot  -22.5305 -0.105312 -2.45502
LeftToes  8.9788e-011 3.29689e-010 2.1201e-011
2331
root  22.5163 35.4241 15.0942 -150.656 22.2516 179.78
RightUpLeg  -48.8894 1.37184 -0.462677
RightLeg  84.2935 0.734545 6.97833
RightFoot  -9.89737 -0.2073 11.0641
RightToes  5.38503e-012 1.26228e-014 -6.01869e-014
Spine  30.1723 1.88072 -11.6603
Spine1  5.34896 1.47499 -6.66457
HEad  -2.25673 -1.20227 -2.4193
LeftShoulder1  1.71491 -2.95514 -21.2693
LeftArm  1.88157 -12.4842 -47.6947
LeftForeArm  35.5803 -6.1732 -11.7918
LeftHand  -0.000198707 5.67007 8.69161
RightShoulder  1.73999 2.75349 22.5165
RightArm  10.9695 -11.853 55.2223
RightForeArm  46.3219 25.5735 3.08919
RightHand  -0.00706317 -5.61406 -8.09329
LeftUpLeg  -53.3328 -0.410197 3.08213
LeftLeg  51.3884 0.765593 1.53604
LeftFoot  -25.566 -0.30281 -3.6567
LeftToes  8.9788e-011 3.29689e-010 2.1201e-011
2332
root  23.6673 35.8034 13.3573 -150.139 22.8344 -179.21
RightUpLeg  -55.5219 -0.362928 -0.0394163
RightLeg  82.7659 0.650189 4.07075
RightFoot  -11.5636 -0.0583418 10.4971
RightToes  5.38503e-012 1.26228e-014 -6.01869e-014
Spine  30.0952 1.4038 -10.2995
Spine1  4.81821 1.42134 -6.10535
HEad  -2.60876 -1.22046 -2.25117
LeftShoulder1  1.75961 -3.44304 -19.8606
LeftArm  -0.292287 -17.621 -49.4704
LeftForeArm  33.0132 -6.88311 -11.171
LeftHand  -0.0390421 5.12898 9.11343
RightShoulder  1.71583 2.72327 22.2416
RightArm  6.98418 -7.94551 56.0646
RightForeArm  42.9096 25.6398 3.26159
RightHand  0.0140148 -5.68378 -12.7389
LeftUpLeg  -48.3362 0.181327 4.63186
LeftLeg  49.0945 0.851784 1.53963
LeftFoot  -27.3234 -0.598694 -5.43166
LeftToes  8.9788e-011 3.29689e-010 2.1201e-011
2333
root  24.8869 36.3018 11.5346 -150.003 22.7369 -178.178
RightUpLeg  -60.3174 -2.4809 0.781931
RightLeg  76.6672 0.594985 1.63784
RightFoot  -13.7467 0.11251 9.79185
RightToes  5.38503e-012 1.26228e-014 -6.01869e-014
Spine  30.658 0.714736 -8.48571
Spine1  3.86549 0.954482 -5.05738
HEad  -2.20511 -1.96411 -1.44143
LeftShoulder1  1.80149 -3.95447 -18.5052
LeftArm  0.567432 -21.4251 -50.945
LeftForeArm  29.8215 -9.30453 -10.3937
LeftHand  -0.0636345 4.80248 9.179
RightShoulder  1.79193 3.1119 21.6787
RightArm  5.2078 -3.94334 57.178
RightForeArm  40.6362 23.9893 3.05794
RightHand  -0.0534225 -5.10272 -16.211
LeftUpLeg  -42.7314 0.0742416 6.57862
LeftLeg  46.1649 0.641147 1.17243
LeftFoot  -27.1736 -0.925068 -7.81743
LeftToes  8.9788e-011 3.29689e-010 2.1201e-011
2334
root  26.1556 36.7392 9.67519 -149.784 22.6566 -177.216
RightUpLeg  -63.5896 -4.02901 1.26367
RightLeg  66.8933 0.247271 -0.0297224
RightFoot  -14.769 0.199338 9.99636
RightToes  5.38503e-012 1.26228e-014 -6.01869e-014
Spine  30.6119 0.125764 -6.26354
Spine1  3.68145 0.693863 -3.97795
HEad  -2.36964 -3.07728 -0.658054
LeftShoulder1  1.81812 -4.52786 -16.767
LeftArm  2.29946 -24.4398 -53.1667
LeftForeArm  27.998 -12.2977 -9.15475
LeftHand  -0.0871093 4.51917 9.51494
RightShoulder  1.81595 3.28154 21.3038
RightArm  2.04687 0.533435 57.2632
RightForeArm  43.6957 22.239 3.32657
RightHand  -0.0569933 -5.06984 -15.7129
LeftUpLeg  -37.757 -0.0473174 8.54373
LeftLeg  43.9945 0.0438768 0.479606
LeftFoot  -25.3377 -1.2226 -11.1685
LeftToes  8.9788e-011 3.29689e-010 2.1201e-011
